Motion_mu16
version=1
nRows=12
nColumns=43
inDegrees=yes
endheader
time	pelvis_tilt	pelvis_list	pelvis_rotation	pelvis_tx	pelvis_ty	pelvis_tz	hip_flexion_r	hip_adduction_r	hip_rotation_r	knee_angle_r	ankle_angle_r	subtalar_angle_r	mtp_angle_r	hip_flexion_l	hip_adduction_l	hip_rotation_l	knee_angle_l	ankle_angle_l	subtalar_angle_l	mtp_angle_l	lumbar_extension	lumbar_bending	lumbar_rotation	neck_flexion	neck_lateral_bending	neck_rotation	arm_flex_r	arm_add_r	arm_rot_r	elbow_flex_r	pro_sup_r	wrist_flex_r	wrist_dev_r	hand_finger_flex_r	arm_flex_l	arm_add_l	arm_rot_l	elbow_flex_l	pro_sup_l	wrist_flex_l	wrist_dev_l	hand_finger_flex_l
      2.79750000	     -2.69612420	     25.09272299	    -85.50748759	     -0.01348572	      1.88794740	      1.03245087	     51.47805294	     -8.86769781	    -24.85985864	    -20.56494757	    -17.58959899	      1.14560891	    -21.16340404	     63.83654146	     -4.56001159	     -1.88956939	    -38.32818342	      3.40555506	     -3.55764894	    -31.76507891	    -16.01904765	      5.65975715	     -2.13827759	     19.29053427	     -1.04529693	     12.23906677	   -215.29790858	   -157.88112247	   -191.55993101	     98.01611076	    175.79388174	    -59.00783227	    -24.20730302	     90.00021046	   -209.19166006	    213.47162139	   -173.89655749	     90.92580197	    150.77431526	    -88.18733352	    -15.43482167	     90.00021046
      2.80000000	     -2.74140840	     25.04463285	    -85.43951078	     -0.01295388	      1.88842160	      1.03275813	     51.39384907	     -8.79096055	    -25.22026151	    -20.20014854	    -17.79419312	      0.89656895	    -21.22779334	     63.85183401	     -4.61735105	     -1.85637806	    -38.13981828	      3.11876126	     -3.79562287	    -31.74644995	    -15.94235237	      5.76695690	     -1.81533263	     19.10670705	     -1.20481953	     11.81908937	   -215.58469867	   -158.02806514	   -191.92663243	     97.93300974	    175.57359724	    -59.23248345	    -24.13510474	     90.00021046	   -208.54593307	    213.64842544	   -173.09133890	     90.61670267	    150.47831016	    -88.68204208	    -15.42300611	     90.00021046
      2.80250000	     -2.65602489	     24.96985466	    -85.49522055	     -0.01256835	      1.88891271	      1.03318220	     51.40009985	     -8.77327578	    -25.24488189	    -20.08911558	    -17.75232164	      0.85960090	    -21.22914219	     63.84304149	     -4.66984707	     -1.83186491	    -38.08316537	      3.12101438	     -3.82158967	    -31.73988451	    -15.91652502	      5.71595305	     -1.83312824	     19.19390474	     -1.22272551	     11.77513241	   -215.49521379	   -157.93734560	   -191.83520818	     97.76290279	    175.60580429	    -59.23234500	    -24.15625129	     90.00021046	   -208.40627651	    213.58995566	   -172.89670775	     90.35976441	    150.45012520	    -88.68806354	    -15.42387621	     90.00021046
      2.80500000	     -2.59453429	     24.92071675	    -85.49836989	     -0.01215155	      1.88941817	      1.03357738	     51.36639441	     -8.74284331	    -25.33089450	    -19.84259904	    -17.68418410	      0.78169075	    -21.22966085	     63.81424782	     -4.70835574	     -1.87120123	    -37.89617001	      3.09161399	     -3.86016844	    -31.73550006	    -15.85628837	      5.68933967	     -1.84179000	     19.23507371	     -1.22622959	     11.72309120	   -215.43853841	   -157.87270288	   -191.77805292	     97.57381705	    175.60722293	    -59.23729254	    -24.15813153	     90.00021046	   -208.20442054	    213.55675126	   -172.65621699	     90.10820714	    150.41371355	    -88.71295139	    -15.42716520	     90.00021046
      2.80750000	     -2.53654045	     24.87360333	    -85.50807754	     -0.01175516	      1.88990159	      1.03393700	     51.32626813	     -8.70129792	    -25.46155651	    -19.57502229	    -17.63251399	      0.67423532	    -21.23348620	     63.78563148	     -4.75488823	     -1.91681345	    -37.69700561	      3.02358648	     -3.90705057	    -31.73487761	    -15.78986075	      5.66565732	     -1.81905670	     19.22472952	     -1.22636329	     11.65936641	   -215.40166994	   -157.82294407	   -191.75816147	     97.39056449	    175.58327362	    -59.25018836	    -24.14430719	     90.00021046	   -207.97581836	    213.55027460	   -172.38597519	     89.84800506	    150.36450374	    -88.75846405	    -15.42832736	     90.00021046
      2.81000000	     -2.48488858	     24.82796992	    -85.51954788	     -0.01134746	      1.89036896	      1.03431724	     51.29618694	     -8.66267826	    -25.59381827	    -19.33301000	    -17.60562225	      0.55816528	    -21.24023067	     63.77125647	     -4.80616350	     -1.95289677	    -37.51722279	      2.94597732	     -3.95999428	    -31.73603977	    -15.71843048	      5.64714036	     -1.78225348	     19.19169002	     -1.22910073	     11.58910464	   -215.37873321	   -157.78390533	   -191.75213021	     97.21409801	    175.54996348	    -59.26644103	    -24.12480640	     90.00021046	   -207.74320508	    213.53378259	   -172.10498247	     89.60150516	    150.30893622	    -88.81519179	    -15.42781444	     90.00021046
      2.81250000	     -2.43276037	     24.79084317	    -85.53607234	     -0.01094830	      1.89082371	      1.03468750	     51.28048393	     -8.61664301	    -25.72458176	    -19.09558996	    -17.59007075	      0.43528117	    -21.24833720	     63.76334579	     -4.85649377	     -1.98340928	    -37.33875775	      2.87200884	     -4.01942227	    -31.73748743	    -15.63794295	      5.62552292	     -1.74173848	     19.14826173	     -1.23198264	     11.51335681	   -215.35901877	   -157.74867468	   -191.75090786	     97.03574055	    175.51503028	    -59.28414199	    -24.10470951	     90.00021046	   -207.51266748	    213.51076252	   -171.82050912	     89.35103159	    150.24786874	    -88.87879528	    -15.42502907	     90.00021046
      2.81500000	     -2.38292687	     24.75876206	    -85.55441256	     -0.01055574	      1.89126008	      1.03505603	     51.27282662	     -8.56920177	    -25.84980073	    -18.86851192	    -17.58456819	      0.30870187	    -21.25757999	     63.76202730	     -4.90830412	     -2.01112618	    -37.16335694	      2.80635749	     -4.08550410	    -31.73860225	    -15.54900911	      5.60497744	     -1.70265856	     19.09244722	     -1.23190917	     11.43462634	   -215.33678524	   -157.71636117	   -191.75282756	     96.85684995	    175.48105752	    -59.30295973	    -24.08663454	     90.00021046	   -207.29042185	    213.48464944	   -171.54365333	     89.10300950	    150.18265787	    -88.94887588	    -15.42072626	     90.00021046
      2.81750000	     -2.39557728	     24.78829446	    -85.55579594	     -0.01014522	      1.89164828	      1.03530871	     51.32357087	     -8.45776987	    -26.07119714	    -18.57025732	    -17.90940795	     -0.15011846	    -21.34898811	     63.86148488	     -4.96870940	     -1.97710415	    -36.99829910	      2.50697316	     -4.40983178	    -31.74117729	    -15.37159485	      5.64984481	     -1.39914418	     18.74340193	     -1.34278318	     11.04153229	   -215.54963343	   -157.87587783	   -192.07956228	     96.72127320	    175.30634005	    -59.51498179	    -24.02263135	     90.00021046	   -206.69771165	    213.63012985	   -170.71900754	     88.71818898	    149.73398019	    -89.58736008	    -15.41529909	     90.00021046
      2.82000000	     -2.33063933	     24.73001830	    -85.58982072	     -0.00974762	      1.89208509	      1.03572115	     51.32706224	     -8.42510577	    -26.09008780	    -18.43872444	    -17.84449888	     -0.18853417	    -21.34728372	     63.84588612	     -5.01127037	     -1.97654979	    -36.87453967	      2.54004486	     -4.43466724	    -31.73490791	    -15.32858166	      5.61427899	     -1.42359019	     18.82837590	     -1.34361951	     11.01765024	   -215.47848563	   -157.77970501	   -191.98252431	     96.56045343	    175.34357563	    -59.50626588	    -24.04615628	     90.00021046	   -206.58664130	    213.52437260	   -170.58819965	     88.50422854	    149.70849103	    -89.58644490	    -15.42398473	     90.00021046
      2.82250000	     -2.27686813	     24.68058700	    -85.61610715	     -0.00937270	      1.89252921	      1.03613396	     51.31893807	     -8.37879688	    -26.15502135	    -18.26831128	    -17.78102811	     -0.24618100	    -21.34592921	     63.82595671	     -5.06351556	     -2.00012669	    -36.71891124	      2.56333654	     -4.47093641	    -31.72966653	    -15.26958338	      5.58547806	     -1.44771269	     18.84044491	     -1.32860982	     10.99519018	   -215.39461916	   -157.73316494	   -191.94271679	     96.36100467	    175.36009618	    -59.49690396	    -24.05433711	     90.00021046	   -206.48514847	    213.42966888	   -170.45781689	     88.30599419	    149.68364299	    -89.59281242	    -15.43265384	     90.00021046
      2.82500000	     -2.23183646	     24.63826749	    -85.63760271	     -0.00903205	      1.89299234	      1.03655176	     51.29089604	     -8.32059384	    -26.26611918	    -18.05169364	    -17.71750730	     -0.32946509	    -21.34604539	     63.79621642	     -5.12660385	     -2.03960481	    -36.52341484	      2.58290221	     -4.52675997	    -31.72427308	    -15.18841747	      5.56296968	     -1.46439060	     18.80566723	     -1.29582553	     10.96505191	   -215.30885710	   -157.67464811	   -191.86690237	     96.15616849	    175.36526999	    -59.49193201	    -24.06115651	     90.00021046	   -206.34102603	    213.35553484	   -170.30692142	     88.04564224	    149.65086324	    -89.60554981	    -15.44078482	     90.00021046
